<?xml version="1.0"?><svg xmlns="http://www.w3.org/2000/svg"  viewBox="0 0 24 24" width="96px" height="96px">    <path d="M 12.001953 2.0292969 C 11.210578 2.0290469 10.418703 2.3170781 9.8457031 2.8925781 L 8.1699219 4.5683594 L 11.828125 8.2285156 L 15.658203 4.3945312 L 14.158203 2.8925781 C 13.584703 2.3170781 12.793328 2.0295469 12.001953 2.0292969 z M 17.072266 5.8105469 L 13.242188 9.6445312 L 15.166016 11.568359 L 19.013672 7.7519531 L 17.072266 5.8105469 z M 6.7558594 5.984375 L 2.8945312 9.8457031 C 2.3165313 10.419703 2 11.184 2 12 C 2 12.816 2.3165781 13.580344 2.8925781 14.152344 L 4.4023438 15.662109 L 10.414062 9.6445312 L 6.7558594 5.984375 z M 20.427734 9.1660156 L 16.580078 12.984375 L 19.429688 15.835938 L 21.109375 14.15625 C 21.680375 13.58225 21.997 12.821484 22 12.021484 C 22.007 11.198484 21.689422 10.426656 21.107422 9.8476562 L 20.427734 9.1660156 z M 11.828125 11.060547 L 5.8164062 17.076172 L 9.8457031 21.105469 C 10.419703 21.682469 11.184 22 12 22 C 12.82 22 13.586344 21.682422 14.152344 21.107422 L 18.013672 17.248047 L 11.828125 11.060547 z"/></svg>